<?xml version="1.0" encoding="utf-8"?>
<!-- Generator: Adobe Illustrator 19.0.0, SVG Export Plug-In . SVG Version: 6.00 Build 0)  -->
<svg version="1.1" id="Layer_1" xmlns="http://www.w3.org/2000/svg" xmlns:xlink="http://www.w3.org/1999/xlink" x="0px" y="0px"
	 viewBox="39.1 362.9 103.3 103.8" style="enable-background:new 39.1 362.9 103.3 103.8;" xml:space="preserve">
<style type="text/css">
	.st0{fill:#7A30CF;}
	.st1{fill:#FFFFFF;}
</style>
<rect x="39.1" y="362.9" class="st0" width="103.3" height="103.8"/>
<path id="XMLID_6_" class="st1" d="M142.4,416.1c-10.8,1-22.1,1.5-33.1,3.6c-7.5,1.3-13.1,6.9-14.4,14.4c-1.8,11-2.3,22.4-3.3,32.6
	c-0.8-8-1.3-17-2.3-25.7c-1.8-14.4-9.2-21.6-23.9-23.1c-8.5-0.8-17-1-26.2-1.8c11-1,21.3-1.5,31.9-3.1c9.2-1.3,16.4-9,17.7-18.2
	c1.3-10,2.1-20,3.1-31.9c0.5,9.2,0.8,17,1.5,24.9c2.1,20.8,11,24.9,29.5,26.7C129.5,415.3,136.2,415.6,142.4,416.1z"/>
</svg>
