<?xml version="1.0" encoding="utf-8"?>
<!-- Generator: Adobe Illustrator 19.0.0, SVG Export Plug-In . SVG Version: 6.00 Build 0)  -->
<svg version="1.1" id="Layer_1" xmlns="http://www.w3.org/2000/svg" xmlns:xlink="http://www.w3.org/1999/xlink" x="0px" y="0px"
	 viewBox="-132 344.8 330.5 140" style="enable-background:new -132 344.8 330.5 140;" xml:space="preserve">
<style type="text/css">
	.st0{fill:#7A30CF;}
	.st1{fill:none;stroke:#7A30CF;stroke-miterlimit:10;}
</style>
<path id="XMLID_7_" class="st0" d="M-47.6,421.1c-7.2,4.5-13.1,8.2-17.5,11c1.6,4.3,3.8,7.7,6.9,10.3c3.1,2.6,6.2,3.8,9.5,3.8
	c2.1,0,3.6-0.1,4.7-0.2c1.1-0.1,2.2-0.5,3.3-1.1c1.1-0.6,2.4-1.6,3.6-2.9l0.8,0.9c-1,1-2,1.9-3,2.7s-2.9,1.7-5.5,2.6
	c-2.7,1-6,1.4-9.9,1.4c-5.5,0-9.9-1-13.4-3c-3.4-2-6-4.6-7.6-7.9c-1.6-3.3-2.4-6.9-2.4-10.8c0-4.3,0.9-8.4,2.7-12.2s4.4-6.9,8.1-9.4
	c3.6-2.4,8.2-3.6,13.5-3.6c4.4,0,8.1,0.8,10.8,2.3c2.8,1.6,4.6,3.3,5.7,5c1.1,1.9,1.5,3.1,1.1,3.5C-36.5,414-40.3,416.6-47.6,421.1z
	 M-49.8,407.2c-1.3-1.9-3.4-2.9-6.5-2.9c-3,0-5.5,1.3-7.7,3.7c-2.2,2.5-3.3,6.5-3.3,12.2c0,3.4,0.5,6.7,1.4,9.8
	c4.3-2.3,8.4-4.8,12.2-7.8c3.7-3,5.6-6,5.6-9.2C-47.9,411.1-48.6,409.1-49.8,407.2z"/>
<path id="XMLID_10_" class="st0" d="M17.3,447.1c0,0.3,0.2-0.1,0.5-1.4c0.3-1.2,0.6-3.4,0.8-6.5c0.3-3.2,0.4-7.5,0.4-13.1
	c0-6.2-0.2-10.8-0.6-13.8c-0.4-3-1.1-4.8-2-5.8c-0.9-1-2.3-1.4-4.1-1.4c-1.8,0-3.3,0.9-4.8,2.7s-2.8,3.9-3.9,6.5
	c0.3,2.1,0.4,4.8,0.4,8.2l-0.1,7.8c0,4.3,0.1,7.7,0.4,10.1c0.3,2.5,0.5,4.2,0.8,5.3c0.3,1.1,0.5,1.5,0.5,1.2H-7.9
	c0,0.3,0.2-0.1,0.5-1.4c0.3-1.2,0.6-3.4,0.9-6.5c0.3-3.2,0.4-7.5,0.4-13.1c0-6.2-0.2-10.8-0.6-13.8c-0.4-3-1.1-4.8-2-5.8
	c-0.9-0.9-2.3-1.4-4.1-1.4c-2.6,0-4.9,2-7.3,6c-0.2,3.3-0.3,7.5-0.3,12.4c0,5.2,0.1,9.6,0.4,13c0.3,3.4,0.5,6.2,0.9,8.1
	c0.3,1.9,0.5,2.7,0.5,2.4H-32c0.1-0.5,0.3-1.6,0.6-3.3c0.3-1.8,0.5-4.3,0.8-7.7c0.3-3.3,0.4-7.2,0.4-11.6s-0.1-8.3-0.4-11.4
	c-0.3-3.3-0.5-5.7-0.8-7.3c-0.3-1.6-0.4-2.7-0.6-3.1h12.6c-0.1,0.3-0.1,1-0.2,2c-0.1,1.1-0.2,2.5-0.2,4.2c2.9-4.2,7-6.3,12.1-6.3
	c3.1,0,5.4,0.7,7.1,2.1c1.7,1.4,2.9,3.4,3.6,6c1.3-2.4,3.1-4.2,5.4-5.8c2.3-1.6,5.3-2.3,9-2.3c3.4,0,6,0.8,7.7,2.4s2.8,3.7,3.3,6.4
	s0.8,6.3,0.8,10.6v6.4c0,4.9,0.1,8.8,0.4,11.4c0.3,2.8,0.5,4.6,0.8,5.8c0.3,1.1,0.5,1.5,0.5,1.2H17.3L17.3,447.1L17.3,447.1z"/>
<path id="XMLID_14_" class="st0" d="M48.4,404.4c-0.1,0.3-0.3,1.2-0.6,2.7c-0.3,1.5-0.5,3.7-0.8,6.9c-0.3,3.2-0.4,6.9-0.4,11.4
	c0,4.4,0.1,8.3,0.4,11.5c0.3,3.3,0.5,5.6,0.8,7.3c0.3,1.6,0.4,2.7,0.6,3.1H35c0.1-0.5,0.3-1.6,0.6-3.3s0.5-4.3,0.8-7.7
	c0.3-3.3,0.4-7.2,0.4-11.6s-0.1-8.1-0.4-11.1c-0.3-3-0.5-5.3-0.9-7c-0.3-1.7-0.5-2.4-0.5-2.1H48.4L48.4,404.4z"/>
<path id="XMLID_15_" class="st0" d="M79.3,447.1c0,0.3,0.2-0.2,0.5-1.3c0.3-1.2,0.6-3.1,0.9-5.8c0.3-2.8,0.4-6.5,0.4-11.3
	c0-6.8-0.3-11.9-0.8-15.3c-0.6-3.3-1.3-5.6-2.3-6.6c-0.9-1-2.2-1.6-3.6-1.6c-3.3,0-6.3,2-9,5.8l-0.1,2.7c-0.1,3.8-0.2,7.1-0.2,9.9
	c0,5.2,0.1,9.6,0.4,13c0.3,3.4,0.5,6.2,0.9,8.1c0.3,1.9,0.5,2.7,0.5,2.4H53.5c0.1-0.5,0.3-1.6,0.6-3.3c0.3-1.8,0.5-4.3,0.8-7.7
	c0.3-3.3,0.4-7.2,0.4-11.6s-0.1-8.3-0.4-11.4c-0.3-3.3-0.5-5.7-0.8-7.3s-0.4-2.7-0.6-3.1h12.6l-0.4,5.1c3.3-3.4,7.6-5.1,13-5.1
	c3.6,0,6.3,0.9,8.2,2.7c1.8,1.8,3,4.3,3.5,7.7s0.8,8,0.8,13.9c0,5.3,0.1,9.6,0.4,12.5c0.3,3,0.5,5.1,0.8,6.3s0.5,1.7,0.5,1.3
	L79.3,447.1L79.3,447.1z"/>
<path id="XMLID_17_" class="st0" d="M129.9,421.1c-7.2,4.5-13.1,8.2-17.5,11c1.6,4.3,3.8,7.7,6.9,10.3c3.1,2.6,6.2,3.8,9.5,3.8
	c2.1,0,3.6-0.1,4.7-0.2c1.1-0.1,2.2-0.5,3.3-1.1c1.1-0.6,2.4-1.6,3.6-2.9l0.8,0.9c-1,1-2,1.9-3,2.7c-1,0.8-2.9,1.7-5.5,2.6
	c-2.8,1-6,1.4-9.9,1.4c-5.5,0-9.9-1-13.4-3c-3.4-2-6-4.6-7.6-7.9c-1.6-3.3-2.4-6.9-2.4-10.8c0-4.3,0.9-8.4,2.7-12.2
	c1.8-3.8,4.4-6.9,8.1-9.4c3.6-2.4,8.2-3.6,13.5-3.6c4.4,0,8.1,0.8,10.8,2.3c2.8,1.6,4.6,3.3,5.7,5c1.1,1.9,1.5,3.1,1.1,3.5
	C140.9,414,137.2,416.6,129.9,421.1z M127.6,407.2c-1.3-1.9-3.4-2.9-6.5-2.9c-3,0-5.5,1.3-7.7,3.7c-2.2,2.5-3.3,6.5-3.3,12.2
	c0,3.4,0.5,6.7,1.4,9.8c4.3-2.3,8.4-4.8,12.2-7.8c3.7-3,5.6-6,5.6-9.2C129.5,411.1,128.9,409.1,127.6,407.2z"/>
<ellipse id="XMLID_1_" transform="matrix(-0.9807 0.1956 -0.1956 -0.9807 144.555 831.3089)" class="st1" cx="31.2" cy="422.8" rx="154.8" ry="51.7"/>
<circle id="XMLID_3_" class="st0" cx="-120.9" cy="452.9" r="9.1"/>
<circle id="XMLID_5_" class="st0" cx="182.9" cy="392.6" r="12.6"/>
<path id="XMLID_6_" class="st0" d="M67.6,376.1c-5.4,0.5-11.1,0.8-16.7,1.8c-3.7,0.6-6.6,3.5-7.2,7.2c-0.9,5.6-1.2,11.2-1.7,16.4
	c-0.4-4-0.6-8.5-1.2-12.9c-0.9-7.2-4.6-10.8-12-11.6c-4.3-0.4-8.5-0.5-13.2-0.9c5.6-0.5,10.7-0.8,16-1.5c4.6-0.6,8.3-4.5,8.9-9.2
	c0.6-5,1-10.1,1.5-16c0.3,4.6,0.4,8.5,0.8,12.5c1,10.5,5.6,12.5,14.8,13.4C61.2,375.7,64.5,375.8,67.6,376.1z"/>
</svg>
